<mxfile host="app.diagrams.net" modified="2024-01-08T11:34:44.207Z" agent="Mozilla/5.0 (Windows NT 10.0; Win64; x64) AppleWebKit/537.36 (KHTML, like Gecko) Chrome/120.0.0.0 Safari/537.36" etag="xviceNS2VIhZmtEKKB3y" version="22.1.17" type="github">
  <diagram name="Page-1" id="kS4GUIlbzl2aElr6xo_A">
    <mxGraphModel dx="1750" dy="870" grid="1" gridSize="10" guides="1" tooltips="1" connect="1" arrows="1" fold="1" page="1" pageScale="1" pageWidth="850" pageHeight="1100" math="0" shadow="0">
      <root>
        <mxCell id="0" />
        <mxCell id="1" parent="0" />
        <mxCell id="hOkgHb6xJfYCAfjcYgw--17" style="rounded=0;orthogonalLoop=1;jettySize=auto;html=1;exitX=0.5;exitY=1;exitDx=0;exitDy=0;" edge="1" parent="1" source="hOkgHb6xJfYCAfjcYgw--1" target="hOkgHb6xJfYCAfjcYgw--6">
          <mxGeometry relative="1" as="geometry" />
        </mxCell>
        <mxCell id="hOkgHb6xJfYCAfjcYgw--37" style="rounded=0;orthogonalLoop=1;jettySize=auto;html=1;exitX=0.5;exitY=1;exitDx=0;exitDy=0;" edge="1" parent="1" source="hOkgHb6xJfYCAfjcYgw--1" target="hOkgHb6xJfYCAfjcYgw--22">
          <mxGeometry relative="1" as="geometry" />
        </mxCell>
        <mxCell id="hOkgHb6xJfYCAfjcYgw--1" value="RM1" style="ellipse;whiteSpace=wrap;html=1;aspect=fixed;" vertex="1" parent="1">
          <mxGeometry x="370" y="60" width="40" height="40" as="geometry" />
        </mxCell>
        <mxCell id="hOkgHb6xJfYCAfjcYgw--2" value="U1" style="rounded=1;whiteSpace=wrap;html=1;strokeColor=default;align=center;verticalAlign=bottom;fontFamily=Helvetica;fontSize=12;fontColor=default;fillColor=default;dashed=1;labelPosition=center;verticalLabelPosition=top;fontStyle=1" vertex="1" parent="1">
          <mxGeometry x="160" y="180" width="120" height="60" as="geometry" />
        </mxCell>
        <mxCell id="hOkgHb6xJfYCAfjcYgw--3" value="T11" style="rounded=0;whiteSpace=wrap;html=1;strokeColor=default;align=center;verticalAlign=middle;fontFamily=Helvetica;fontSize=12;fontColor=default;fillColor=default;" vertex="1" parent="1">
          <mxGeometry x="170" y="190" width="40" height="40" as="geometry" />
        </mxCell>
        <mxCell id="hOkgHb6xJfYCAfjcYgw--33" style="rounded=0;orthogonalLoop=1;jettySize=auto;html=1;exitX=0.5;exitY=1;exitDx=0;exitDy=0;entryX=0.5;entryY=0;entryDx=0;entryDy=0;" edge="1" parent="1" source="hOkgHb6xJfYCAfjcYgw--4" target="hOkgHb6xJfYCAfjcYgw--30">
          <mxGeometry relative="1" as="geometry" />
        </mxCell>
        <mxCell id="hOkgHb6xJfYCAfjcYgw--4" value="T12" style="rounded=0;whiteSpace=wrap;html=1;strokeColor=default;align=center;verticalAlign=middle;fontFamily=Helvetica;fontSize=12;fontColor=default;fillColor=default;" vertex="1" parent="1">
          <mxGeometry x="230" y="190" width="40" height="40" as="geometry" />
        </mxCell>
        <mxCell id="hOkgHb6xJfYCAfjcYgw--36" style="rounded=0;orthogonalLoop=1;jettySize=auto;html=1;exitX=0.5;exitY=1;exitDx=0;exitDy=0;entryX=0.5;entryY=0;entryDx=0;entryDy=0;" edge="1" parent="1" source="hOkgHb6xJfYCAfjcYgw--6" target="hOkgHb6xJfYCAfjcYgw--31">
          <mxGeometry relative="1" as="geometry" />
        </mxCell>
        <mxCell id="hOkgHb6xJfYCAfjcYgw--6" value="T21" style="rounded=0;whiteSpace=wrap;html=1;strokeColor=default;align=center;verticalAlign=middle;fontFamily=Helvetica;fontSize=12;fontColor=default;fillColor=default;" vertex="1" parent="1">
          <mxGeometry x="450" y="180" width="40" height="40" as="geometry" />
        </mxCell>
        <mxCell id="hOkgHb6xJfYCAfjcYgw--35" style="rounded=0;orthogonalLoop=1;jettySize=auto;html=1;exitX=0.5;exitY=1;exitDx=0;exitDy=0;entryX=0.5;entryY=0;entryDx=0;entryDy=0;" edge="1" parent="1" source="hOkgHb6xJfYCAfjcYgw--7" target="hOkgHb6xJfYCAfjcYgw--31">
          <mxGeometry relative="1" as="geometry" />
        </mxCell>
        <mxCell id="hOkgHb6xJfYCAfjcYgw--7" value="T22" style="rounded=0;whiteSpace=wrap;html=1;strokeColor=default;align=center;verticalAlign=middle;fontFamily=Helvetica;fontSize=12;fontColor=default;fillColor=default;" vertex="1" parent="1">
          <mxGeometry x="510" y="180" width="40" height="40" as="geometry" />
        </mxCell>
        <mxCell id="hOkgHb6xJfYCAfjcYgw--8" value="" style="endArrow=classic;html=1;rounded=0;fontFamily=Helvetica;fontSize=12;fontColor=default;exitX=0.5;exitY=1;exitDx=0;exitDy=0;entryX=0.5;entryY=0;entryDx=0;entryDy=0;" edge="1" parent="1" source="hOkgHb6xJfYCAfjcYgw--13" target="hOkgHb6xJfYCAfjcYgw--7">
          <mxGeometry width="50" height="50" relative="1" as="geometry">
            <mxPoint x="520" y="100" as="sourcePoint" />
            <mxPoint x="580" y="40" as="targetPoint" />
          </mxGeometry>
        </mxCell>
        <mxCell id="hOkgHb6xJfYCAfjcYgw--10" value="" style="endArrow=classic;html=1;rounded=0;fontFamily=Helvetica;fontSize=12;fontColor=default;exitX=0.5;exitY=1;exitDx=0;exitDy=0;entryX=0.5;entryY=0;entryDx=0;entryDy=0;" edge="1" parent="1" source="hOkgHb6xJfYCAfjcYgw--1" target="hOkgHb6xJfYCAfjcYgw--4">
          <mxGeometry width="50" height="50" relative="1" as="geometry">
            <mxPoint x="345" y="105" as="sourcePoint" />
            <mxPoint x="395" y="55" as="targetPoint" />
          </mxGeometry>
        </mxCell>
        <mxCell id="hOkgHb6xJfYCAfjcYgw--14" style="rounded=0;orthogonalLoop=1;jettySize=auto;html=1;exitX=0.5;exitY=1;exitDx=0;exitDy=0;entryX=0.5;entryY=0;entryDx=0;entryDy=0;" edge="1" parent="1" source="hOkgHb6xJfYCAfjcYgw--13" target="hOkgHb6xJfYCAfjcYgw--3">
          <mxGeometry relative="1" as="geometry" />
        </mxCell>
        <mxCell id="hOkgHb6xJfYCAfjcYgw--13" value="RM2" style="ellipse;whiteSpace=wrap;html=1;aspect=fixed;" vertex="1" parent="1">
          <mxGeometry x="450" y="60" width="40" height="40" as="geometry" />
        </mxCell>
        <mxCell id="hOkgHb6xJfYCAfjcYgw--19" value="U2" style="rounded=0;whiteSpace=wrap;html=1;strokeColor=default;align=center;verticalAlign=bottom;fontFamily=Helvetica;fontSize=12;fontColor=default;fillColor=none;dashed=1;labelPosition=center;verticalLabelPosition=top;fontStyle=1" vertex="1" parent="1">
          <mxGeometry x="440" y="170" width="120" height="60" as="geometry" />
        </mxCell>
        <mxCell id="hOkgHb6xJfYCAfjcYgw--56" style="rounded=0;orthogonalLoop=1;jettySize=auto;html=1;exitX=0.75;exitY=1;exitDx=0;exitDy=0;entryX=0.5;entryY=0;entryDx=0;entryDy=0;" edge="1" parent="1" source="hOkgHb6xJfYCAfjcYgw--21" target="hOkgHb6xJfYCAfjcYgw--50">
          <mxGeometry relative="1" as="geometry" />
        </mxCell>
        <mxCell id="hOkgHb6xJfYCAfjcYgw--21" value="U3&lt;br&gt;" style="rounded=1;whiteSpace=wrap;html=1;strokeColor=default;align=center;verticalAlign=bottom;fontFamily=Helvetica;fontSize=12;fontColor=default;fillColor=none;dashed=1;labelPosition=center;verticalLabelPosition=top;fontStyle=1" vertex="1" parent="1">
          <mxGeometry x="160" y="370" width="120" height="60" as="geometry" />
        </mxCell>
        <mxCell id="hOkgHb6xJfYCAfjcYgw--53" style="rounded=0;orthogonalLoop=1;jettySize=auto;html=1;exitX=0.5;exitY=1;exitDx=0;exitDy=0;entryX=0.5;entryY=0;entryDx=0;entryDy=0;" edge="1" parent="1" source="hOkgHb6xJfYCAfjcYgw--22" target="hOkgHb6xJfYCAfjcYgw--50">
          <mxGeometry relative="1" as="geometry" />
        </mxCell>
        <mxCell id="hOkgHb6xJfYCAfjcYgw--22" value="T31" style="rounded=0;whiteSpace=wrap;html=1;strokeColor=default;align=center;verticalAlign=middle;fontFamily=Helvetica;fontSize=12;fontColor=default;fillColor=default;" vertex="1" parent="1">
          <mxGeometry x="170" y="380" width="40" height="40" as="geometry" />
        </mxCell>
        <mxCell id="hOkgHb6xJfYCAfjcYgw--23" value="T32" style="rounded=0;whiteSpace=wrap;html=1;strokeColor=default;align=center;verticalAlign=middle;fontFamily=Helvetica;fontSize=12;fontColor=default;fillColor=default;" vertex="1" parent="1">
          <mxGeometry x="230" y="380" width="40" height="40" as="geometry" />
        </mxCell>
        <mxCell id="hOkgHb6xJfYCAfjcYgw--25" value="U4" style="rounded=1;whiteSpace=wrap;html=1;strokeColor=default;align=center;verticalAlign=bottom;fontFamily=Helvetica;fontSize=12;fontColor=default;fillColor=default;dashed=1;labelPosition=center;verticalLabelPosition=top;fontStyle=1" vertex="1" parent="1">
          <mxGeometry x="330" y="370" width="170" height="60" as="geometry" />
        </mxCell>
        <mxCell id="hOkgHb6xJfYCAfjcYgw--57" style="rounded=0;orthogonalLoop=1;jettySize=auto;html=1;exitX=0.5;exitY=1;exitDx=0;exitDy=0;entryX=0.5;entryY=0;entryDx=0;entryDy=0;" edge="1" parent="1" source="hOkgHb6xJfYCAfjcYgw--26" target="hOkgHb6xJfYCAfjcYgw--52">
          <mxGeometry relative="1" as="geometry" />
        </mxCell>
        <mxCell id="hOkgHb6xJfYCAfjcYgw--26" value="T41" style="rounded=0;whiteSpace=wrap;html=1;strokeColor=default;align=center;verticalAlign=middle;fontFamily=Helvetica;fontSize=12;fontColor=default;fillColor=default;" vertex="1" parent="1">
          <mxGeometry x="340" y="380" width="40" height="40" as="geometry" />
        </mxCell>
        <mxCell id="hOkgHb6xJfYCAfjcYgw--58" style="edgeStyle=orthogonalEdgeStyle;rounded=0;orthogonalLoop=1;jettySize=auto;html=1;exitX=0.5;exitY=1;exitDx=0;exitDy=0;" edge="1" parent="1" source="hOkgHb6xJfYCAfjcYgw--27" target="hOkgHb6xJfYCAfjcYgw--52">
          <mxGeometry relative="1" as="geometry" />
        </mxCell>
        <mxCell id="hOkgHb6xJfYCAfjcYgw--27" value="T42" style="rounded=0;whiteSpace=wrap;html=1;strokeColor=default;align=center;verticalAlign=middle;fontFamily=Helvetica;fontSize=12;fontColor=default;fillColor=default;" vertex="1" parent="1">
          <mxGeometry x="395" y="380" width="40" height="40" as="geometry" />
        </mxCell>
        <mxCell id="hOkgHb6xJfYCAfjcYgw--59" style="rounded=0;orthogonalLoop=1;jettySize=auto;html=1;exitX=0.5;exitY=1;exitDx=0;exitDy=0;entryX=0.5;entryY=0;entryDx=0;entryDy=0;" edge="1" parent="1" source="hOkgHb6xJfYCAfjcYgw--28" target="hOkgHb6xJfYCAfjcYgw--52">
          <mxGeometry relative="1" as="geometry" />
        </mxCell>
        <mxCell id="hOkgHb6xJfYCAfjcYgw--28" value="T43" style="rounded=0;whiteSpace=wrap;html=1;strokeColor=default;align=center;verticalAlign=middle;fontFamily=Helvetica;fontSize=12;fontColor=default;fillColor=default;" vertex="1" parent="1">
          <mxGeometry x="450" y="380" width="40" height="40" as="geometry" />
        </mxCell>
        <mxCell id="hOkgHb6xJfYCAfjcYgw--41" style="rounded=0;orthogonalLoop=1;jettySize=auto;html=1;exitX=0.5;exitY=1;exitDx=0;exitDy=0;" edge="1" parent="1" source="hOkgHb6xJfYCAfjcYgw--30" target="hOkgHb6xJfYCAfjcYgw--23">
          <mxGeometry relative="1" as="geometry" />
        </mxCell>
        <mxCell id="hOkgHb6xJfYCAfjcYgw--42" style="rounded=0;orthogonalLoop=1;jettySize=auto;html=1;exitX=0.5;exitY=1;exitDx=0;exitDy=0;entryX=0.5;entryY=0;entryDx=0;entryDy=0;" edge="1" parent="1" source="hOkgHb6xJfYCAfjcYgw--30" target="hOkgHb6xJfYCAfjcYgw--26">
          <mxGeometry relative="1" as="geometry" />
        </mxCell>
        <mxCell id="hOkgHb6xJfYCAfjcYgw--43" style="rounded=0;orthogonalLoop=1;jettySize=auto;html=1;exitX=0.5;exitY=1;exitDx=0;exitDy=0;" edge="1" parent="1" source="hOkgHb6xJfYCAfjcYgw--30" target="hOkgHb6xJfYCAfjcYgw--27">
          <mxGeometry relative="1" as="geometry" />
        </mxCell>
        <mxCell id="hOkgHb6xJfYCAfjcYgw--30" value="INT1" style="ellipse;whiteSpace=wrap;html=1;aspect=fixed;" vertex="1" parent="1">
          <mxGeometry x="380" y="270" width="40" height="40" as="geometry" />
        </mxCell>
        <mxCell id="hOkgHb6xJfYCAfjcYgw--40" style="rounded=0;orthogonalLoop=1;jettySize=auto;html=1;exitX=0.5;exitY=1;exitDx=0;exitDy=0;entryX=0.5;entryY=0;entryDx=0;entryDy=0;" edge="1" parent="1" source="hOkgHb6xJfYCAfjcYgw--31" target="hOkgHb6xJfYCAfjcYgw--28">
          <mxGeometry relative="1" as="geometry" />
        </mxCell>
        <mxCell id="hOkgHb6xJfYCAfjcYgw--47" style="rounded=0;orthogonalLoop=1;jettySize=auto;html=1;exitX=0.5;exitY=1;exitDx=0;exitDy=0;" edge="1" parent="1" source="hOkgHb6xJfYCAfjcYgw--31" target="hOkgHb6xJfYCAfjcYgw--45">
          <mxGeometry relative="1" as="geometry" />
        </mxCell>
        <mxCell id="hOkgHb6xJfYCAfjcYgw--48" style="rounded=0;orthogonalLoop=1;jettySize=auto;html=1;exitX=0.5;exitY=1;exitDx=0;exitDy=0;" edge="1" parent="1" source="hOkgHb6xJfYCAfjcYgw--31" target="hOkgHb6xJfYCAfjcYgw--46">
          <mxGeometry relative="1" as="geometry" />
        </mxCell>
        <mxCell id="hOkgHb6xJfYCAfjcYgw--31" value="INT2" style="ellipse;whiteSpace=wrap;html=1;aspect=fixed;" vertex="1" parent="1">
          <mxGeometry x="560" y="270" width="40" height="40" as="geometry" />
        </mxCell>
        <mxCell id="hOkgHb6xJfYCAfjcYgw--32" style="rounded=0;orthogonalLoop=1;jettySize=auto;html=1;exitX=0.5;exitY=1;exitDx=0;exitDy=0;entryX=0.5;entryY=0;entryDx=0;entryDy=0;" edge="1" parent="1" source="hOkgHb6xJfYCAfjcYgw--3" target="hOkgHb6xJfYCAfjcYgw--30">
          <mxGeometry relative="1" as="geometry" />
        </mxCell>
        <mxCell id="hOkgHb6xJfYCAfjcYgw--44" value="U5" style="rounded=1;whiteSpace=wrap;html=1;strokeColor=default;align=center;verticalAlign=bottom;fontFamily=Helvetica;fontSize=12;fontColor=default;fillColor=none;dashed=1;labelPosition=center;verticalLabelPosition=top;fontStyle=1" vertex="1" parent="1">
          <mxGeometry x="550" y="370" width="120" height="60" as="geometry" />
        </mxCell>
        <mxCell id="hOkgHb6xJfYCAfjcYgw--60" style="rounded=0;orthogonalLoop=1;jettySize=auto;html=1;exitX=0.5;exitY=1;exitDx=0;exitDy=0;entryX=0.5;entryY=0;entryDx=0;entryDy=0;" edge="1" parent="1" source="hOkgHb6xJfYCAfjcYgw--45" target="hOkgHb6xJfYCAfjcYgw--51">
          <mxGeometry relative="1" as="geometry" />
        </mxCell>
        <mxCell id="hOkgHb6xJfYCAfjcYgw--45" value="T51" style="rounded=0;whiteSpace=wrap;html=1;strokeColor=default;align=center;verticalAlign=middle;fontFamily=Helvetica;fontSize=12;fontColor=default;fillColor=default;" vertex="1" parent="1">
          <mxGeometry x="560" y="380" width="40" height="40" as="geometry" />
        </mxCell>
        <mxCell id="hOkgHb6xJfYCAfjcYgw--61" style="rounded=0;orthogonalLoop=1;jettySize=auto;html=1;exitX=0.5;exitY=1;exitDx=0;exitDy=0;entryX=0.5;entryY=0;entryDx=0;entryDy=0;" edge="1" parent="1" source="hOkgHb6xJfYCAfjcYgw--46" target="hOkgHb6xJfYCAfjcYgw--51">
          <mxGeometry relative="1" as="geometry" />
        </mxCell>
        <mxCell id="hOkgHb6xJfYCAfjcYgw--46" value="T52" style="rounded=0;whiteSpace=wrap;html=1;strokeColor=default;align=center;verticalAlign=middle;fontFamily=Helvetica;fontSize=12;fontColor=default;fillColor=default;" vertex="1" parent="1">
          <mxGeometry x="620" y="380" width="40" height="40" as="geometry" />
        </mxCell>
        <mxCell id="hOkgHb6xJfYCAfjcYgw--73" style="rounded=0;orthogonalLoop=1;jettySize=auto;html=1;exitX=0.5;exitY=1;exitDx=0;exitDy=0;entryX=0.5;entryY=0;entryDx=0;entryDy=0;" edge="1" parent="1" source="hOkgHb6xJfYCAfjcYgw--50" target="hOkgHb6xJfYCAfjcYgw--63">
          <mxGeometry relative="1" as="geometry" />
        </mxCell>
        <mxCell id="hOkgHb6xJfYCAfjcYgw--74" style="rounded=0;orthogonalLoop=1;jettySize=auto;html=1;exitX=0.5;exitY=1;exitDx=0;exitDy=0;entryX=0.5;entryY=0;entryDx=0;entryDy=0;" edge="1" parent="1" source="hOkgHb6xJfYCAfjcYgw--50" target="hOkgHb6xJfYCAfjcYgw--68">
          <mxGeometry relative="1" as="geometry" />
        </mxCell>
        <mxCell id="hOkgHb6xJfYCAfjcYgw--50" value="INT3" style="ellipse;whiteSpace=wrap;html=1;aspect=fixed;" vertex="1" parent="1">
          <mxGeometry x="200" y="490" width="40" height="40" as="geometry" />
        </mxCell>
        <mxCell id="hOkgHb6xJfYCAfjcYgw--83" style="rounded=0;orthogonalLoop=1;jettySize=auto;html=1;exitX=0.5;exitY=1;exitDx=0;exitDy=0;entryX=0.5;entryY=0;entryDx=0;entryDy=0;" edge="1" parent="1" source="hOkgHb6xJfYCAfjcYgw--51" target="hOkgHb6xJfYCAfjcYgw--72">
          <mxGeometry relative="1" as="geometry" />
        </mxCell>
        <mxCell id="hOkgHb6xJfYCAfjcYgw--84" style="edgeStyle=none;rounded=0;orthogonalLoop=1;jettySize=auto;html=1;exitX=0.5;exitY=1;exitDx=0;exitDy=0;entryX=0.5;entryY=0;entryDx=0;entryDy=0;" edge="1" parent="1" source="hOkgHb6xJfYCAfjcYgw--51" target="hOkgHb6xJfYCAfjcYgw--79">
          <mxGeometry relative="1" as="geometry" />
        </mxCell>
        <mxCell id="hOkgHb6xJfYCAfjcYgw--85" style="edgeStyle=none;rounded=0;orthogonalLoop=1;jettySize=auto;html=1;exitX=0.5;exitY=1;exitDx=0;exitDy=0;entryX=0.5;entryY=0;entryDx=0;entryDy=0;" edge="1" parent="1" source="hOkgHb6xJfYCAfjcYgw--51" target="hOkgHb6xJfYCAfjcYgw--80">
          <mxGeometry relative="1" as="geometry" />
        </mxCell>
        <mxCell id="hOkgHb6xJfYCAfjcYgw--51" value="INT5" style="ellipse;whiteSpace=wrap;html=1;aspect=fixed;" vertex="1" parent="1">
          <mxGeometry x="600" y="490" width="40" height="40" as="geometry" />
        </mxCell>
        <mxCell id="hOkgHb6xJfYCAfjcYgw--75" style="rounded=0;orthogonalLoop=1;jettySize=auto;html=1;exitX=0.5;exitY=1;exitDx=0;exitDy=0;entryX=0.5;entryY=0;entryDx=0;entryDy=0;" edge="1" parent="1" source="hOkgHb6xJfYCAfjcYgw--52" target="hOkgHb6xJfYCAfjcYgw--64">
          <mxGeometry relative="1" as="geometry" />
        </mxCell>
        <mxCell id="hOkgHb6xJfYCAfjcYgw--76" style="rounded=0;orthogonalLoop=1;jettySize=auto;html=1;exitX=0.5;exitY=1;exitDx=0;exitDy=0;" edge="1" parent="1" source="hOkgHb6xJfYCAfjcYgw--52" target="hOkgHb6xJfYCAfjcYgw--69">
          <mxGeometry relative="1" as="geometry" />
        </mxCell>
        <mxCell id="hOkgHb6xJfYCAfjcYgw--77" style="rounded=0;orthogonalLoop=1;jettySize=auto;html=1;exitX=0.5;exitY=1;exitDx=0;exitDy=0;entryX=0.5;entryY=0;entryDx=0;entryDy=0;" edge="1" parent="1" source="hOkgHb6xJfYCAfjcYgw--52" target="hOkgHb6xJfYCAfjcYgw--71">
          <mxGeometry relative="1" as="geometry" />
        </mxCell>
        <mxCell id="hOkgHb6xJfYCAfjcYgw--52" value="INT4" style="ellipse;whiteSpace=wrap;html=1;aspect=fixed;" vertex="1" parent="1">
          <mxGeometry x="395" y="490" width="40" height="40" as="geometry" />
        </mxCell>
        <mxCell id="hOkgHb6xJfYCAfjcYgw--62" value="U6&lt;br&gt;" style="rounded=1;whiteSpace=wrap;html=1;strokeColor=default;align=center;verticalAlign=bottom;fontFamily=Helvetica;fontSize=12;fontColor=default;fillColor=none;dashed=1;labelPosition=center;verticalLabelPosition=top;fontStyle=1" vertex="1" parent="1">
          <mxGeometry x="120" y="600" width="120" height="60" as="geometry" />
        </mxCell>
        <mxCell id="hOkgHb6xJfYCAfjcYgw--91" style="edgeStyle=none;rounded=0;orthogonalLoop=1;jettySize=auto;html=1;exitX=0.5;exitY=1;exitDx=0;exitDy=0;entryX=0.5;entryY=0;entryDx=0;entryDy=0;" edge="1" parent="1" source="hOkgHb6xJfYCAfjcYgw--63" target="hOkgHb6xJfYCAfjcYgw--87">
          <mxGeometry relative="1" as="geometry" />
        </mxCell>
        <mxCell id="hOkgHb6xJfYCAfjcYgw--63" value="T61" style="rounded=0;whiteSpace=wrap;html=1;strokeColor=default;align=center;verticalAlign=middle;fontFamily=Helvetica;fontSize=12;fontColor=default;fillColor=default;" vertex="1" parent="1">
          <mxGeometry x="130" y="610" width="40" height="40" as="geometry" />
        </mxCell>
        <mxCell id="hOkgHb6xJfYCAfjcYgw--92" style="edgeStyle=none;rounded=0;orthogonalLoop=1;jettySize=auto;html=1;exitX=0.5;exitY=1;exitDx=0;exitDy=0;entryX=0.5;entryY=0;entryDx=0;entryDy=0;" edge="1" parent="1" source="hOkgHb6xJfYCAfjcYgw--64" target="hOkgHb6xJfYCAfjcYgw--87">
          <mxGeometry relative="1" as="geometry" />
        </mxCell>
        <mxCell id="hOkgHb6xJfYCAfjcYgw--64" value="T62" style="rounded=0;whiteSpace=wrap;html=1;strokeColor=default;align=center;verticalAlign=middle;fontFamily=Helvetica;fontSize=12;fontColor=default;fillColor=default;" vertex="1" parent="1">
          <mxGeometry x="185" y="610" width="40" height="40" as="geometry" />
        </mxCell>
        <mxCell id="hOkgHb6xJfYCAfjcYgw--67" value="U7" style="rounded=1;whiteSpace=wrap;html=1;strokeColor=default;align=center;verticalAlign=bottom;fontFamily=Helvetica;fontSize=12;fontColor=default;fillColor=none;dashed=1;labelPosition=center;verticalLabelPosition=top;fontStyle=1" vertex="1" parent="1">
          <mxGeometry x="330" y="600" width="120" height="60" as="geometry" />
        </mxCell>
        <mxCell id="hOkgHb6xJfYCAfjcYgw--93" style="edgeStyle=none;rounded=0;orthogonalLoop=1;jettySize=auto;html=1;exitX=0.5;exitY=1;exitDx=0;exitDy=0;entryX=0.5;entryY=0;entryDx=0;entryDy=0;" edge="1" parent="1" source="hOkgHb6xJfYCAfjcYgw--68" target="hOkgHb6xJfYCAfjcYgw--88">
          <mxGeometry relative="1" as="geometry" />
        </mxCell>
        <mxCell id="hOkgHb6xJfYCAfjcYgw--68" value="T71" style="rounded=0;whiteSpace=wrap;html=1;strokeColor=default;align=center;verticalAlign=middle;fontFamily=Helvetica;fontSize=12;fontColor=default;fillColor=default;" vertex="1" parent="1">
          <mxGeometry x="340" y="610" width="40" height="40" as="geometry" />
        </mxCell>
        <mxCell id="hOkgHb6xJfYCAfjcYgw--95" style="edgeStyle=none;rounded=0;orthogonalLoop=1;jettySize=auto;html=1;exitX=0.5;exitY=1;exitDx=0;exitDy=0;entryX=0.5;entryY=0;entryDx=0;entryDy=0;" edge="1" parent="1" source="hOkgHb6xJfYCAfjcYgw--69" target="hOkgHb6xJfYCAfjcYgw--88">
          <mxGeometry relative="1" as="geometry">
            <mxPoint x="401.9999999999998" y="680" as="targetPoint" />
          </mxGeometry>
        </mxCell>
        <mxCell id="hOkgHb6xJfYCAfjcYgw--69" value="T72" style="rounded=0;whiteSpace=wrap;html=1;strokeColor=default;align=center;verticalAlign=middle;fontFamily=Helvetica;fontSize=12;fontColor=default;fillColor=default;" vertex="1" parent="1">
          <mxGeometry x="400" y="610" width="40" height="40" as="geometry" />
        </mxCell>
        <mxCell id="hOkgHb6xJfYCAfjcYgw--70" value="U8" style="rounded=1;whiteSpace=wrap;html=1;strokeColor=default;align=center;verticalAlign=bottom;fontFamily=Helvetica;fontSize=12;fontColor=default;fillColor=none;dashed=1;labelPosition=center;verticalLabelPosition=top;fontStyle=1" vertex="1" parent="1">
          <mxGeometry x="490" y="600" width="120" height="60" as="geometry" />
        </mxCell>
        <mxCell id="hOkgHb6xJfYCAfjcYgw--96" style="edgeStyle=none;rounded=0;orthogonalLoop=1;jettySize=auto;html=1;exitX=0.5;exitY=1;exitDx=0;exitDy=0;entryX=0.5;entryY=0;entryDx=0;entryDy=0;" edge="1" parent="1" source="hOkgHb6xJfYCAfjcYgw--71" target="hOkgHb6xJfYCAfjcYgw--89">
          <mxGeometry relative="1" as="geometry" />
        </mxCell>
        <mxCell id="hOkgHb6xJfYCAfjcYgw--71" value="T81" style="rounded=0;whiteSpace=wrap;html=1;strokeColor=default;align=center;verticalAlign=middle;fontFamily=Helvetica;fontSize=12;fontColor=default;fillColor=default;" vertex="1" parent="1">
          <mxGeometry x="500" y="610" width="40" height="40" as="geometry" />
        </mxCell>
        <mxCell id="hOkgHb6xJfYCAfjcYgw--97" style="edgeStyle=none;rounded=0;orthogonalLoop=1;jettySize=auto;html=1;exitX=0.5;exitY=1;exitDx=0;exitDy=0;entryX=0.5;entryY=0;entryDx=0;entryDy=0;" edge="1" parent="1" source="hOkgHb6xJfYCAfjcYgw--72" target="hOkgHb6xJfYCAfjcYgw--89">
          <mxGeometry relative="1" as="geometry" />
        </mxCell>
        <mxCell id="hOkgHb6xJfYCAfjcYgw--72" value="T82" style="rounded=0;whiteSpace=wrap;html=1;strokeColor=default;align=center;verticalAlign=middle;fontFamily=Helvetica;fontSize=12;fontColor=default;fillColor=default;" vertex="1" parent="1">
          <mxGeometry x="560" y="610" width="40" height="40" as="geometry" />
        </mxCell>
        <mxCell id="hOkgHb6xJfYCAfjcYgw--78" value="U9" style="rounded=1;whiteSpace=wrap;html=1;strokeColor=default;align=center;verticalAlign=bottom;fontFamily=Helvetica;fontSize=12;fontColor=default;fillColor=none;dashed=1;labelPosition=center;verticalLabelPosition=top;fontStyle=1" vertex="1" parent="1">
          <mxGeometry x="640" y="600" width="120" height="60" as="geometry" />
        </mxCell>
        <mxCell id="hOkgHb6xJfYCAfjcYgw--98" style="edgeStyle=none;rounded=0;orthogonalLoop=1;jettySize=auto;html=1;exitX=0.5;exitY=1;exitDx=0;exitDy=0;entryX=0.5;entryY=0;entryDx=0;entryDy=0;" edge="1" parent="1" source="hOkgHb6xJfYCAfjcYgw--79" target="hOkgHb6xJfYCAfjcYgw--90">
          <mxGeometry relative="1" as="geometry" />
        </mxCell>
        <mxCell id="hOkgHb6xJfYCAfjcYgw--79" value="T91" style="rounded=0;whiteSpace=wrap;html=1;strokeColor=default;align=center;verticalAlign=middle;fontFamily=Helvetica;fontSize=12;fontColor=default;fillColor=default;" vertex="1" parent="1">
          <mxGeometry x="650" y="610" width="40" height="40" as="geometry" />
        </mxCell>
        <mxCell id="hOkgHb6xJfYCAfjcYgw--99" style="edgeStyle=none;rounded=0;orthogonalLoop=1;jettySize=auto;html=1;exitX=0.5;exitY=1;exitDx=0;exitDy=0;entryX=0.5;entryY=0;entryDx=0;entryDy=0;" edge="1" parent="1" source="hOkgHb6xJfYCAfjcYgw--80" target="hOkgHb6xJfYCAfjcYgw--90">
          <mxGeometry relative="1" as="geometry" />
        </mxCell>
        <mxCell id="hOkgHb6xJfYCAfjcYgw--80" value="T92" style="rounded=0;whiteSpace=wrap;html=1;strokeColor=default;align=center;verticalAlign=middle;fontFamily=Helvetica;fontSize=12;fontColor=default;fillColor=default;" vertex="1" parent="1">
          <mxGeometry x="710" y="610" width="40" height="40" as="geometry" />
        </mxCell>
        <mxCell id="hOkgHb6xJfYCAfjcYgw--86" style="edgeStyle=none;rounded=0;orthogonalLoop=1;jettySize=auto;html=1;exitX=1;exitY=0.5;exitDx=0;exitDy=0;" edge="1" parent="1" source="hOkgHb6xJfYCAfjcYgw--62" target="hOkgHb6xJfYCAfjcYgw--62">
          <mxGeometry relative="1" as="geometry" />
        </mxCell>
        <mxCell id="hOkgHb6xJfYCAfjcYgw--87" value="FP1" style="ellipse;whiteSpace=wrap;html=1;aspect=fixed;" vertex="1" parent="1">
          <mxGeometry x="160" y="700" width="40" height="40" as="geometry" />
        </mxCell>
        <mxCell id="hOkgHb6xJfYCAfjcYgw--88" value="FP2" style="ellipse;whiteSpace=wrap;html=1;aspect=fixed;" vertex="1" parent="1">
          <mxGeometry x="370" y="700" width="40" height="40" as="geometry" />
        </mxCell>
        <mxCell id="hOkgHb6xJfYCAfjcYgw--89" value="FP3" style="ellipse;whiteSpace=wrap;html=1;aspect=fixed;" vertex="1" parent="1">
          <mxGeometry x="530" y="700" width="40" height="40" as="geometry" />
        </mxCell>
        <mxCell id="hOkgHb6xJfYCAfjcYgw--90" value="FP4" style="ellipse;whiteSpace=wrap;html=1;aspect=fixed;" vertex="1" parent="1">
          <mxGeometry x="680" y="700" width="40" height="40" as="geometry" />
        </mxCell>
      </root>
    </mxGraphModel>
  </diagram>
</mxfile>
